<!-- Created with Inkscape (http://www.inkscape.org/) -->
<svg
   xmlns:ns0="http://www.iki.fi/pav/software/textext/"
   xmlns:dc="http://purl.org/dc/elements/1.1/"
   xmlns:cc="http://creativecommons.org/ns#"
   xmlns:rdf="http://www.w3.org/1999/02/22-rdf-syntax-ns#"
   xmlns:svg="http://www.w3.org/2000/svg"
   xmlns="http://www.w3.org/2000/svg"
   xmlns:sodipodi="http://sodipodi.sourceforge.net/DTD/sodipodi-0.dtd"
   xmlns:inkscape="http://www.inkscape.org/namespaces/inkscape"
   width="395.97131"
   height="412.88803"
   id="svg2"
   sodipodi:version="0.32"
   inkscape:version="0.46"
   sodipodi:docname="RL series C parallel.svg"
   inkscape:output_extension="org.inkscape.output.svg.inkscape"
   version="1.0"
   inkscape:export-filename="C:\Documents and Settings\Compaq_Owner\My Documents\Wikipedia Articles\RLC circuit\RLC series.png"
   inkscape:export-xdpi="90"
   inkscape:export-ydpi="90">
  <defs
     id="defs4">
    <linearGradient
       id="linearGradient4767">
      <stop
         style="stop-color:#e2a616;stop-opacity:1;"
         offset="0"
         id="stop4769" />
      <stop
         id="stop4771"
         offset="0.33480668"
         style="stop-color:#8d531e;stop-opacity:1;" />
      <stop
         id="stop4773"
         offset="0.62843102"
         style="stop-color:#713f12;stop-opacity:1;" />
      <stop
         style="stop-color:#4d2b0c;stop-opacity:1;"
         offset="1"
         id="stop4775" />
    </linearGradient>
    <inkscape:perspective
       sodipodi:type="inkscape:persp3d"
       inkscape:vp_x="0 : 526.18109 : 1"
       inkscape:vp_y="0 : 1000 : 0"
       inkscape:vp_z="744.09448 : 526.18109 : 1"
       inkscape:persp3d-origin="372.04724 : 350.78739 : 1"
       id="perspective10" />
    <inkscape:perspective
       id="perspective2390"
       inkscape:persp3d-origin="372.04724 : 350.78739 : 1"
       inkscape:vp_z="744.09448 : 526.18109 : 1"
       inkscape:vp_y="0 : 1000 : 0"
       inkscape:vp_x="0 : 526.18109 : 1"
       sodipodi:type="inkscape:persp3d" />
    <inkscape:perspective
       id="perspective2403"
       inkscape:persp3d-origin="372.04724 : 350.78739 : 1"
       inkscape:vp_z="744.09448 : 526.18109 : 1"
       inkscape:vp_y="0 : 1000 : 0"
       inkscape:vp_x="0 : 526.18109 : 1"
       sodipodi:type="inkscape:persp3d" />
    <inkscape:perspective
       id="perspective2416"
       inkscape:persp3d-origin="372.04724 : 350.78739 : 1"
       inkscape:vp_z="744.09448 : 526.18109 : 1"
       inkscape:vp_y="0 : 1000 : 0"
       inkscape:vp_x="0 : 526.18109 : 1"
       sodipodi:type="inkscape:persp3d" />
    <inkscape:perspective
       id="perspective2429"
       inkscape:persp3d-origin="372.04724 : 350.78739 : 1"
       inkscape:vp_z="744.09448 : 526.18109 : 1"
       inkscape:vp_y="0 : 1000 : 0"
       inkscape:vp_x="0 : 526.18109 : 1"
       sodipodi:type="inkscape:persp3d" />
    <inkscape:perspective
       id="perspective2462"
       inkscape:persp3d-origin="372.04724 : 350.78739 : 1"
       inkscape:vp_z="744.09448 : 526.18109 : 1"
       inkscape:vp_y="0 : 1000 : 0"
       inkscape:vp_x="0 : 526.18109 : 1"
       sodipodi:type="inkscape:persp3d" />
    <inkscape:perspective
       id="perspective3348"
       inkscape:persp3d-origin="372.04724 : 350.78739 : 1"
       inkscape:vp_z="744.09448 : 526.18109 : 1"
       inkscape:vp_y="0 : 1000 : 0"
       inkscape:vp_x="0 : 526.18109 : 1"
       sodipodi:type="inkscape:persp3d" />
    <inkscape:perspective
       id="perspective3361"
       inkscape:persp3d-origin="372.04724 : 350.78739 : 1"
       inkscape:vp_z="744.09448 : 526.18109 : 1"
       inkscape:vp_y="0 : 1000 : 0"
       inkscape:vp_x="0 : 526.18109 : 1"
       sodipodi:type="inkscape:persp3d" />
    <inkscape:perspective
       id="perspective5650"
       inkscape:persp3d-origin="372.04724 : 350.78739 : 1"
       inkscape:vp_z="744.09448 : 526.18109 : 1"
       inkscape:vp_y="0 : 1000 : 0"
       inkscape:vp_x="0 : 526.18109 : 1"
       sodipodi:type="inkscape:persp3d" />
  </defs>
  <sodipodi:namedview
     id="base"
     pagecolor="#ffffff"
     bordercolor="#666666"
     borderopacity="1.0"
     gridtolerance="10000"
     guidetolerance="10"
     objecttolerance="10"
     inkscape:pageopacity="0.0"
     inkscape:pageshadow="2"
     inkscape:zoom="0.7"
     inkscape:cx="120.15035"
     inkscape:cy="150.72987"
     inkscape:document-units="px"
     inkscape:current-layer="layer1"
     showgrid="false"
     inkscape:window-width="1280"
     inkscape:window-height="968"
     inkscape:window-x="-4"
     inkscape:window-y="-4"
     showguides="true"
     inkscape:guide-bbox="true" />
  <metadata
     id="metadata7">
    <rdf:RDF>
      <cc:Work
         rdf:about="">
        <dc:format>image/svg+xml</dc:format>
        <dc:type
           rdf:resource="http://purl.org/dc/dcmitype/StillImage" />
      </cc:Work>
    </rdf:RDF>
  </metadata>
  <g
     inkscape:label="Layer 1"
     inkscape:groupmode="layer"
     id="layer1"
     transform="translate(407.03351,257.17996)">
    <rect
       width="395.97131"
       height="412.88803"
       rx="0"
       ry="11.244467"
       x="-407.03351"
       y="-257.17996"
       id="rect6350"
       style="fill:#fff;fill-opacity:1;stroke:none;stroke-width:1.5;stroke-miterlimit:4;stroke-dasharray:none;stroke-opacity:1" />
    <g
       transform="matrix(4.7428709,0,0,-4.2190673,-1138.047,2901.0252)"
       xml:space="preserve"
       style="font-style:normal;font-variant:normal;font-weight:normal;font-stretch:normal;letter-spacing:normal;word-spacing:normal;text-anchor:start;fill:none;fill-opacity:1;fill-rule:evenodd;stroke:#000000;stroke-width:0.22354817;stroke-linecap:butt;stroke-linejoin:miter;stroke-miterlimit:10.43299961;stroke-dasharray:none;stroke-dashoffset:0;stroke-opacity:1"
       ns0:text="$\nC\n$"
       ns0:preamble=""
       id="g9744">
<path
   d="M 231,714.05 L 231,714.05 L 231,714.05 L 231,714.06 L 231,714.06 L 231,714.06 L 231,714.07 L 231,714.07 L 231,714.07 L 231,714.08 L 231,714.08 L 230.99,714.09 L 230.99,714.09 L 230.99,714.1 L 230.99,714.1 L 230.99,714.1 L 230.98,714.11 L 230.98,714.11 L 230.98,714.12 L 230.97,714.12 L 230.97,714.12 L 230.96,714.13 L 230.96,714.13 L 230.95,714.13 L 230.95,714.13 L 230.94,714.14 L 230.94,714.14 L 230.94,714.14 L 230.93,714.14 L 230.93,714.14 L 230.93,714.14 L 230.92,714.14 L 230.92,714.14 L 230.92,714.14 L 230.91,714.14 L 230.91,714.15 L 230.91,714.15 L 230.9,714.15 L 230.9,714.15 L 230.89,714.15 C 230.87,714.15 230.85,714.14 230.74,714.03 L 230.05,713.26 C 229.96,713.4 229.5,714.15 228.39,714.15 C 226.17,714.15 223.93,711.94 223.93,709.63 C 223.93,707.99 225.11,706.9 226.63,706.9 C 227.5,706.9 228.25,707.3 228.78,707.76 C 229.71,708.58 229.88,709.48 229.88,709.51 C 229.88,709.61 229.78,709.61 229.76,709.61 C 229.7,709.61 229.65,709.59 229.63,709.51 C 229.54,709.22 229.31,708.52 228.62,707.94 C 227.94,707.38 227.31,707.21 226.79,707.21 C 225.89,707.21 224.84,707.73 224.84,709.28 C 224.84,709.85 225.05,711.47 226.04,712.63 C 226.65,713.34 227.59,713.84 228.47,713.84 C 229.49,713.84 230.08,713.07 230.08,711.91 C 230.08,711.52 230.05,711.51 230.05,711.41 C 230.05,711.31 230.16,711.31 230.2,711.31 C 230.33,711.31 230.33,711.33 230.38,711.51 L 231,714.05 z"
   style="fill:#000000;stroke-width:0.22354817;stroke-miterlimit:10.43299961;stroke-dasharray:none"
   id="path9746" />
</g>    <g
       transform="matrix(-1.0768465e-3,0.9999993,-0.9999993,-1.0768465e-3,-207.83514,-31.57331)"
       id="g10389">
      <rect
         width="5.0178571"
         height="38.135715"
         ry="1.0035714"
         x="-37.132141"
         y="-120.42857"
         id="rect10391"
         style="fill:#000000;fill-opacity:1;stroke:#000000;stroke-width:1.50000024;stroke-miterlimit:4.0999999;stroke-dasharray:none;stroke-opacity:1" />
      <rect
         width="5.0178571"
         height="38.135715"
         ry="1.0035714"
         x="-15.555355"
         y="-120.42857"
         id="rect10393"
         style="fill:#000000;fill-opacity:1;stroke:#000000;stroke-width:1.50000024;stroke-miterlimit:4.0999999;stroke-dasharray:none;stroke-opacity:1" />
    </g>
    <path
       id="path10395"
       style="fill:none;fill-opacity:1;fill-rule:nonzero;stroke:#000000;stroke-width:1.70000005;stroke-linecap:round;stroke-linejoin:round;stroke-miterlimit:4;stroke-dasharray:none;stroke-dashoffset:0;stroke-opacity:1"
       d="M -236.15167,33.79622 C -236.28966,35.02362 -236.16607,36.46042 -235.92656,38.10492 C -234.94306,44.85962 -229.72607,54.42512 -215.18347,53.39932 C -203.20537,52.55442 -202.07847,51.77092 -199.24117,49.66372 C -197.27407,48.20272 -197.08716,45.16072 -197.08716,45.16072 M -215.24166,65.72562 C -218.16936,65.33972 -225.37537,65.09372 -229.99886,61.76202 C -234.00517,58.87502 -235.66386,54.32962 -235.92656,52.06682 C -236.71386,45.28642 -229.72607,35.74662 -215.18347,36.77242 C -203.20537,37.61732 -202.07847,38.40082 -199.24117,40.50802 C -197.27407,41.96902 -197.08716,45.01102 -197.08716,45.01102 M -236.15167,10.64692 C -236.28966,11.87432 -236.16607,13.31112 -235.92656,14.95562 C -234.94306,21.71032 -229.72607,31.27582 -215.18347,30.25002 C -203.20537,29.40512 -202.07847,28.62162 -199.24117,26.51442 C -197.27407,25.05342 -197.08716,22.01142 -197.08716,22.01142 M -236.15167,33.22622 C -236.28966,31.99882 -236.16607,30.56202 -235.92656,28.91752 C -234.94306,22.16282 -229.72607,12.59732 -215.18347,13.62312 C -203.20537,14.46802 -202.07847,15.25152 -199.24117,17.35872 C -197.27407,18.81972 -197.08716,21.86172 -197.08716,21.86172 M -236.15167,-12.502284 C -236.28966,-11.274984 -236.16607,-9.8381839 -235.92656,-8.1936839 C -234.94306,-1.4388803 -229.72607,8.1266197 -215.18347,7.1008197 C -203.20537,6.2559197 -202.07847,5.4724197 -199.24117,3.3651197 C -197.27407,1.9042196 -197.08716,-1.1377803 -197.08716,-1.1377803 M -236.15167,10.07692 C -236.28966,8.8496197 -236.16607,7.4128197 -235.92656,5.7683197 C -234.94306,-0.98638031 -229.72607,-10.551984 -215.18347,-9.5261839 C -203.20537,-8.6812839 -202.07847,-7.8976843 -199.24117,-5.7904843 C -197.27407,-4.3295843 -197.08716,-1.2874803 -197.08716,-1.2874803 M -215.24166,-45.165784 C -217.67406,-45.471684 -224.57886,-44.760184 -229.48057,-42.121484 C -234.93306,-39.186285 -235.98787,-34.755085 -235.92656,-31.342885 C -235.83956,-26.666785 -229.72607,-15.022584 -215.18347,-16.048384 C -203.20537,-16.893384 -202.07847,-17.676884 -199.24117,-19.784085 C -197.27407,-21.244985 -197.08716,-24.287085 -197.08716,-24.287085 M -236.15167,-13.072284 C -236.28966,-14.299684 -236.16607,-15.736384 -235.92656,-17.380984 C -234.94306,-24.135685 -229.72607,-33.701185 -215.18347,-32.675385 C -203.20537,-31.830485 -202.07847,-31.046985 -199.24117,-28.939685 C -197.27407,-27.478785 -197.08716,-24.436785 -197.08716,-24.436785"
       sodipodi:nodetypes="csssccssssccsssccsssccsssccsssccssssccsssc" />
    <text
       sodipodi:linespacing="100%"
       x="-11.942289"
       y="18.743889"
       xml:space="preserve"
       style="font-size:40px;font-style:normal;font-weight:normal;line-height:100%;fill:#000000;fill-opacity:1;stroke:none;stroke-width:1px;stroke-linecap:butt;stroke-linejoin:miter;stroke-opacity:1;font-family:Bitstream Vera Sans"
       id="text10397"><tspan
         x="-11.942289"
         y="18.743889"
         style="fill:#000000"
         id="tspan10399"><tspan
           style="font-size:40px;font-style:normal;font-variant:normal;font-weight:normal;font-stretch:normal;text-align:start;line-height:100%;writing-mode:lr-tb;text-anchor:start;font-family:Arial;-inkscape-font-specification:Arial"
           id="tspan10401"> </tspan></tspan></text>
    <path
       style="fill:none;fill-opacity:1;fill-rule:nonzero;stroke:#000000;stroke-width:1.99999976;stroke-linecap:round;stroke-linejoin:round;stroke-miterlimit:4;stroke-dasharray:none;stroke-dashoffset:0;stroke-opacity:1"
       d="M -328.42161,-208.42043 L -106.67023,-208.9493 L -106.67023,-66.999074"
       id="path10405"
       sodipodi:nodetypes="ccc" />
    <path
       style="fill:none;fill-opacity:1;fill-rule:nonzero;stroke:#000000;stroke-width:2;stroke-linecap:round;stroke-linejoin:round;stroke-miterlimit:4;stroke-dasharray:none;stroke-dashoffset:0;stroke-opacity:1"
       d="M -335.30693,93.65534 L -106.67023,93.65534 L -106.67023,-43.897006"
       id="path10409"
       sodipodi:nodetypes="ccc" />
    <path
       style="fill:none;fill-opacity:1;fill-rule:nonzero;stroke:#000000;stroke-width:1.99999988;stroke-linecap:round;stroke-linejoin:round;stroke-miterlimit:4;stroke-dasharray:none;stroke-dashoffset:0;stroke-opacity:1"
       d="M -215.24166,65.722846 L -215.24166,94.521195"
       id="path10415" />
    <path
       d="M -329.13041,-208.42043 C -329.12911,-205.07214 -331.84301,-202.35703 -335.19131,-202.35703 C -338.53961,-202.35703 -341.25361,-205.07214 -341.25221,-208.42043 C -341.25361,-211.76874 -338.53961,-214.48383 -335.19131,-214.48383 C -331.84301,-214.48383 -329.12911,-211.76874 -329.13041,-208.42043 L -329.13041,-208.42043 z"
       id="path10417"
       style="fill:#ffffff;fill-opacity:1;stroke:#000000;stroke-width:1.5;stroke-miterlimit:4;stroke-dasharray:none;stroke-opacity:1;display:inline" />
    <path
       d="M -329.13041,93.76284 C -329.12911,97.11114 -331.84301,99.82614 -335.19131,99.82614 C -338.53961,99.82614 -341.25361,97.11114 -341.25221,93.76284 C -341.25361,90.41444 -338.53961,87.69944 -335.19131,87.69944 C -331.84301,87.69944 -329.12911,90.41444 -329.13041,93.76284 L -329.13041,93.76284 z"
       id="path10419"
       style="fill:#ffffff;fill-opacity:1;stroke:#000000;stroke-width:1.5;stroke-miterlimit:4;stroke-dasharray:none;stroke-opacity:1;display:inline" />
    <g
       id="g10429"
       ns0:preamble=""
       ns0:text="$\nL\n$"
       style="font-style:normal;font-variant:normal;font-weight:normal;font-stretch:normal;letter-spacing:normal;word-spacing:normal;text-anchor:start;fill:none;fill-opacity:1;fill-rule:evenodd;stroke:#000000;stroke-width:0.22354817;stroke-linecap:butt;stroke-linejoin:miter;stroke-miterlimit:10.43299961;stroke-dasharray:none;stroke-dashoffset:0;stroke-opacity:1"
       xml:space="preserve"
       transform="matrix(4.7428709,0,0,-4.2190673,-1269.0641,3448.3175)">
<path
   id="path10431"
   style="fill:#000000;stroke-width:0.22354817;stroke-miterlimit:10.43299961;stroke-dasharray:none"
   d="M 210.14366,817.81488 L 210.15366,817.84488 L 210.16366,817.87488 L 210.16366,817.90488 L 210.17366,817.93488 L 210.18366,817.96488 L 210.19366,817.99488 L 210.20366,818.01488 L 210.21366,818.03488 L 210.22366,818.06488 L 210.23366,818.08488 L 210.25366,818.10488 L 210.27366,818.12488 L 210.28366,818.13488 L 210.30366,818.15488 L 210.32366,818.16488 L 210.35366,818.18488 L 210.38366,818.19488 L 210.41366,818.20488 L 210.44366,818.21488 L 210.47366,818.22488 L 210.49366,818.23488 L 210.51366,818.23488 L 210.53366,818.24488 L 210.55366,818.24488 L 210.58366,818.25488 L 210.60366,818.25488 L 210.62366,818.25488 L 210.65366,818.26488 L 210.67366,818.26488 L 210.70366,818.26488 L 210.73366,818.26488 L 210.76366,818.27488 L 210.79366,818.27488 L 210.82366,818.27488 L 210.85366,818.27488 L 210.88366,818.27488 L 210.92366,818.27488 L 210.95366,818.27488 L 210.99366,818.28488 L 211.03366,818.28488 L 211.07366,818.28488 L 211.11366,818.28488 L 211.15366,818.28488 L 211.19366,818.28488 C 211.49366,818.28488 211.57366,818.28488 211.57366,818.47488 C 211.57366,818.59488 211.46366,818.59488 211.41366,818.59488 C 211.08366,818.59488 210.27366,818.56488 209.94366,818.56488 C 209.64366,818.56488 208.91366,818.59488 208.61366,818.59488 C 208.54366,818.59488 208.43366,818.59488 208.43366,818.39488 C 208.43366,818.28488 208.52366,818.28488 208.70366,818.28488 C 208.72366,818.28488 208.91366,818.28488 209.08366,818.26488 C 209.26366,818.24488 209.35366,818.23488 209.35366,818.10488 C 209.35366,818.06488 209.34366,818.03488 209.31366,817.91488 L 207.98366,812.56488 C 207.88366,812.17488 207.86366,812.09488 207.07366,812.09488 C 206.90366,812.09488 206.80366,812.09488 206.80366,811.89488 C 206.80366,811.78488 206.89366,811.78488 207.07366,811.78488 L 211.68366,811.78488 C 211.92366,811.78488 211.93366,811.78488 211.99366,811.95488 L 212.78366,814.10488 C 212.82366,814.21488 212.82366,814.23488 212.82366,814.24488 C 212.82366,814.28488 212.79366,814.35488 212.70366,814.35488 C 212.61366,814.35488 212.60366,814.30488 212.53366,814.14488 C 212.19366,813.23488 211.75366,812.09488 210.03366,812.09488 L 209.09366,812.09488 C 208.95366,812.09488 208.93366,812.09488 208.87366,812.10488 C 208.77366,812.11488 208.74366,812.12488 208.74366,812.20488 C 208.74366,812.23488 208.74366,812.25488 208.79366,812.43488 L 210.14366,817.81488 z" />
</g>    <path
       d="M -215.33586,-93.188048 C -215.33586,-93.259238 -229.83201,-98.597928 -229.83201,-98.597928 L -200.91917,-108.99058 L -215.33586,-114.25808 M -215.33586,-114.24167 C -215.33586,-114.31286 -229.83201,-119.65154 -229.83201,-119.65154 L -200.91917,-130.0442 L -215.33586,-135.3117 M -215.24166,-156.32023 C -215.24166,-156.39142 -229.73781,-161.73011 -229.73781,-161.73011 L -200.82497,-172.12275 L -215.24166,-177.39026 M -215.33586,-135.2788 C -215.33586,-135.34999 -229.83201,-140.68866 -229.83201,-140.68866 L -200.91917,-151.08131 L -215.33586,-156.34883 M -215.33586,-93.216208 L -215.33586,-79.122778 M -215.46207,-191.68674 L -215.46207,-177.59332"
       style="fill:none;fill-opacity:1;fill-rule:nonzero;stroke:#000000;stroke-width:1.70000005;stroke-linecap:round;stroke-linejoin:round;stroke-miterlimit:4;stroke-dasharray:none;stroke-dashoffset:0;stroke-opacity:1"
       id="path3963" />
    <g
       transform="matrix(4.7428709,0,0,-4.2190673,-1348.3041,2855.9697)"
       xml:space="preserve"
       style="font-style:normal;font-variant:normal;font-weight:normal;font-stretch:normal;letter-spacing:normal;word-spacing:normal;text-anchor:start;fill:none;fill-opacity:1;fill-rule:evenodd;stroke:#000000;stroke-width:0.22354817;stroke-linecap:butt;stroke-linejoin:miter;stroke-miterlimit:10.43299961;stroke-dasharray:none;stroke-dashoffset:0;stroke-opacity:1"
       ns0:text="$\nR\n$"
       ns0:preamble=""
       id="g9515">
<path
   d="M 228.6,710.51 L 228.7,710.53 L 228.79,710.56 L 228.89,710.58 L 228.99,710.61 L 229.08,710.65 L 229.18,710.68 L 229.27,710.72 L 229.37,710.76 L 229.46,710.8 L 229.56,710.85 L 229.65,710.9 L 229.74,710.95 L 229.83,711 L 229.91,711.06 L 230,711.12 L 230.08,711.18 L 230.15,711.24 L 230.23,711.3 L 230.3,711.37 L 230.37,711.44 L 230.43,711.51 L 230.49,711.58 L 230.54,711.66 L 230.59,711.74 L 230.64,711.82 L 230.68,711.9 L 230.71,711.98 L 230.74,712.07 L 230.76,712.16 L 230.78,712.25 L 230.79,712.34 L 230.79,712.43 C 230.79,713.29 229.9,713.93 228.59,713.93 L 225.75,713.93 C 225.55,713.93 225.46,713.93 225.46,713.73 C 225.46,713.62 225.55,713.62 225.74,713.62 C 225.76,713.62 225.95,713.62 226.12,713.6 C 226.3,713.58 226.39,713.57 226.39,713.44 C 226.39,713.4 226.38,713.37 226.35,713.25 L 225.02,707.9 C 224.92,707.51 224.9,707.43 224.11,707.43 C 223.93,707.43 223.84,707.43 223.84,707.23 C 223.84,707.12 223.96,707.12 223.98,707.12 C 224.26,707.12 224.96,707.15 225.24,707.15 C 225.51,707.15 226.22,707.12 226.5,707.12 C 226.58,707.12 226.7,707.12 226.7,707.32 C 226.7,707.43 226.61,707.43 226.42,707.43 C 226.05,707.43 225.77,707.43 225.77,707.61 C 225.77,707.67 225.79,707.72 225.8,707.78 L 226.46,710.42 L 227.65,710.42 L 227.64,710.64 L 226.52,710.64 L 227.17,713.24 C 227.23,713.48 227.26,713.58 227.45,713.61 C 227.54,713.62 227.86,713.62 228.05,713.62 C 228.76,713.62 229.87,713.62 229.87,712.63 C 229.87,712.29 229.71,711.61 229.32,711.22 C 229.06,710.96 228.53,710.64 227.64,710.64 L 227.65,710.42 C 228.55,710.42 228.73,709.86 228.73,709.51 C 228.73,709.36 228.65,709.05 228.59,708.83 C 228.52,708.55 228.43,708.18 228.43,707.98 C 228.43,706.9 229.63,706.9 229.76,706.9 C 230.61,706.9 230.95,707.91 230.95,708.05 C 230.95,708.17 230.85,708.17 230.84,708.17 C 230.74,708.17 230.73,708.1 230.71,708.03 C 230.46,707.29 230.03,707.12 229.8,707.12 C 229.47,707.12 229.4,707.34 229.4,707.73 C 229.4,708.04 229.46,708.55 229.5,708.87 C 229.52,709.01 229.54,709.2 229.54,709.33 C 229.54,710.1 228.87,710.41 228.6,710.51 z"
   style="fill:#000000;stroke-width:0.22354817;stroke-miterlimit:10.43299961;stroke-dasharray:none"
   id="path9517" />
</g>    <path
       style="fill:none;fill-opacity:1;fill-rule:nonzero;stroke:#000000;stroke-width:1.99999988;stroke-linecap:round;stroke-linejoin:round;stroke-miterlimit:4;stroke-dasharray:none;stroke-dashoffset:0;stroke-opacity:1"
       d="M -215.24166,-88.649008 L -215.24166,-45.396739"
       id="path13165" />
    <path
       style="fill:none;fill-opacity:1;fill-rule:nonzero;stroke:#000000;stroke-width:2;stroke-linecap:round;stroke-linejoin:round;stroke-miterlimit:4;stroke-dasharray:none;stroke-dashoffset:0;stroke-opacity:1"
       d="M -215.24166,-207.9223 L -215.24166,-177.14636"
       id="path13167" />
    <path
       d="M -209.81395,94.267816 C -209.81265,97.616016 -212.52655,100.33122 -215.87485,100.33122 C -219.22315,100.33122 -221.93715,97.616016 -221.93575,94.267816 C -221.93715,90.919516 -219.22315,88.204616 -215.87485,88.204616 C -212.52655,88.204616 -209.81265,90.919516 -209.81395,94.267816 L -209.81395,94.267816 z"
       id="path10403"
       style="fill:#000000;fill-opacity:1;stroke:#000000;stroke-width:1.5;stroke-miterlimit:4;stroke-dasharray:none;stroke-opacity:1;display:inline" />
    <path
       d="M -209.6345,-207.91541 C -209.6332,-204.5671 -212.3471,-201.85201 -215.6954,-201.85201 C -219.0437,-201.85201 -221.7577,-204.5671 -221.7563,-207.91541 C -221.7577,-211.2637 -219.0437,-213.97871 -215.6954,-213.97871 C -212.3471,-213.97871 -209.6332,-211.2637 -209.6345,-207.91541 L -209.6345,-207.91541 z"
       id="path10411"
       style="fill:#000000;fill-opacity:1;stroke:#000000;stroke-width:1.5;stroke-miterlimit:4;stroke-dasharray:none;stroke-opacity:1;display:inline" />
  </g>
</svg>
